<svg width="41" height="40" viewBox="0 0 41 40" fill="none" xmlns="http://www.w3.org/2000/svg">
<path fill-rule="evenodd" clip-rule="evenodd" d="M6.04818 0C5.49353 0 4.98898 0.321069 4.7541 0.823537L0.468436 9.99034C0.36113 10.2199 0.31851 10.4696 0.338944 10.7143H0.333984V13.4155C0.333984 14.9113 0.980842 16.3459 2.13226 17.4037C3.28367 18.4614 4.84533 19.0557 6.47367 19.0557H7.33321C8.96156 19.0557 10.5232 18.4614 11.6746 17.4037C12.1421 16.9743 12.5264 16.4827 12.818 15.9501C13.1798 15.465 13.7679 15.4683 14.1075 15.9127C14.4015 16.4596 14.7928 16.9642 15.2712 17.4037C16.4226 18.4614 17.9843 19.0557 19.6126 19.0557H21.1476C22.7759 19.0557 24.3375 18.4614 25.489 17.4037C25.9362 16.9928 26.3074 16.525 26.5941 16.0188C26.9686 15.4357 27.6249 15.448 27.9653 15.9921C28.254 16.5085 28.6303 16.9856 29.0854 17.4037C30.2368 18.4614 31.7986 19.0557 33.4268 19.0557H34.1943C35.8226 19.0557 37.3843 18.4614 38.5357 17.4037C39.6871 16.3459 40.334 14.9113 40.334 13.4155V10.7143H40.3286C40.3488 10.4696 40.3063 10.2199 40.1988 9.99034L35.9134 0.823537C35.6783 0.321069 35.174 0 34.6191 0H6.04818ZM3.19113 37.1429V22.0815C6.5859 23.2034 10.6336 22.7036 13.4154 20.5513C17.1213 23.4186 23.5533 23.4187 27.2592 20.5514C30.0528 22.7127 34.0937 23.2035 37.4768 22.0551V37.1429C37.4768 37.9006 37.1757 38.6274 36.64 39.1631C36.1043 39.6991 35.3774 40 34.6197 40H31.0326V29.172C31.0326 29.0057 30.9606 28.8463 30.8323 28.7286C30.704 28.6111 30.5303 28.545 30.3488 28.545H24.656C24.4747 28.545 24.3008 28.6111 24.1726 28.7286C24.0444 28.8463 23.9724 29.0057 23.9724 29.172V40H6.04827C5.2905 40 4.56378 39.6991 4.02796 39.1631C3.49216 38.6274 3.19113 37.9006 3.19113 37.1429ZM7.48233 30.7454V27.1429C7.48233 26.3539 8.12193 25.7143 8.9109 25.7143H17.5224C18.3113 25.7143 18.9509 26.3539 18.9509 27.1429V30.7454C18.9509 31.5343 18.3113 32.174 17.5224 32.174H8.9109C8.12193 32.174 7.48233 31.5343 7.48233 30.7454Z" fill="#FABD01"/>
</svg>
