<svg width="29" height="40" viewBox="0 0 29 40" fill="none" xmlns="http://www.w3.org/2000/svg">
<path d="M14.665 40C14.1984 40 13.7984 39.8667 13.465 39.6C13.1317 39.3333 12.8817 38.9833 12.715 38.55C12.0817 36.6833 11.2817 34.9333 10.315 33.3C9.38171 31.6667 8.06504 29.75 6.36504 27.55C4.66504 25.35 3.28171 23.25 2.21504 21.25C1.18171 19.25 0.665039 16.8333 0.665039 14C0.665039 10.1 2.01504 6.8 4.71504 4.1C7.44837 1.36667 10.765 0 14.665 0C18.565 0 21.865 1.36667 24.565 4.1C27.2984 6.8 28.665 10.1 28.665 14C28.665 17.0333 28.0817 19.5667 26.915 21.6C25.7817 23.6 24.465 25.5833 22.965 27.55C21.165 29.95 19.7984 31.95 18.865 33.55C17.965 35.1167 17.215 36.7833 16.615 38.55C16.4484 39.0167 16.1817 39.3833 15.815 39.65C15.4817 39.8833 15.0984 40 14.665 40ZM14.665 19C16.065 19 17.2484 18.5167 18.215 17.55C19.1817 16.5833 19.665 15.4 19.665 14C19.665 12.6 19.1817 11.4167 18.215 10.45C17.2484 9.48333 16.065 9 14.665 9C13.265 9 12.0817 9.48333 11.115 10.45C10.1484 11.4167 9.66504 12.6 9.66504 14C9.66504 15.4 10.1484 16.5833 11.115 17.55C12.0817 18.5167 13.265 19 14.665 19Z" fill="#FABD01"/>
</svg>
