<svg width="40" height="30" viewBox="0 0 40 30" fill="none" xmlns="http://www.w3.org/2000/svg">
<path fill-rule="evenodd" clip-rule="evenodd" d="M29.2774 5.56886H32.8571C34.7514 5.56886 36.5683 6.30225 37.908 7.6077C39.2474 8.91315 40 10.6837 40 12.5299V23.6676C40 24.4364 39.3603 25.0599 38.5714 25.0599H34.4466C34.392 27.7972 32.0977 30 29.276 30C26.4539 30 24.1598 27.7972 24.1052 25.0599H14.2847C14.2301 27.7972 11.936 30 9.11403 30C6.29206 30 3.998 27.7972 3.94337 25.0599H1.42857C0.639594 25.0599 0 24.4364 0 23.6676V4.17664C0 3.06891 0.451531 2.00657 1.25526 1.22331C2.05899 0.440023 3.14906 0 4.28572 0H21.4286C22.5652 0 23.6553 0.440023 24.459 1.22331C25.1994 1.94484 25.6409 2.90316 25.7059 3.9156V14.4479C25.7059 15.409 26.5054 16.1881 27.4916 16.1881C28.4779 16.1881 29.2774 15.409 29.2774 14.4479V5.56886Z" fill="#FABD01"/>
</svg>
