<svg width="40" height="40" viewBox="0 0 40 40" fill="none" xmlns="http://www.w3.org/2000/svg">
<path fill-rule="evenodd" clip-rule="evenodd" d="M16.7763 2.17722C16.7763 0.974775 17.751 0 18.9535 0C21.7174 0 24.4542 0.544382 27.0076 1.60207C29.5611 2.65974 31.8813 4.21001 33.8356 6.16438C35.79 8.11871 37.3402 10.4389 38.3979 12.9924C39.4556 15.5458 40 18.2826 40 21.0465C40 22.249 39.0252 23.2237 37.8228 23.2237C36.6203 23.2237 35.6455 22.249 35.6455 21.0465C35.6455 18.8545 35.2138 16.6839 34.3749 14.6587C33.5361 12.6336 32.3066 10.7934 30.7566 9.24344C29.2066 7.69343 27.3665 6.46391 25.3413 5.62507C23.3161 4.7862 21.1455 4.35444 18.9535 4.35444C17.751 4.35444 16.7763 3.37968 16.7763 2.17722ZM19.8937 38.7521C21.3986 39.7211 23.1898 40.1458 24.9696 39.9556C26.7494 39.7655 28.4104 38.9721 29.6767 37.707L30.7798 36.6039C31.2691 36.1092 31.5436 35.4415 31.5436 34.746C31.5436 34.0501 31.2691 33.3827 30.7798 32.8881L26.1351 28.2723C25.6455 27.7848 24.9827 27.5111 24.2917 27.5111C23.6008 27.5111 22.9379 27.7848 22.4483 28.2723C21.9538 28.7615 21.2861 29.0361 20.5904 29.0361C19.8947 29.0361 19.2271 28.7615 18.7325 28.2723L11.33 20.8698C10.8406 20.3752 10.5663 19.7076 10.5663 19.0119C10.5663 18.3162 10.8406 17.6485 11.33 17.154C11.8175 16.6643 12.0912 16.0015 12.0912 15.3106C12.0912 14.6196 11.8175 13.9568 11.33 13.4672L6.85946 8.82245C6.3648 8.33316 5.69711 8.05874 5.00156 8.05874C4.30572 8.05874 3.63804 8.33316 3.14367 8.82245L2.04054 9.92558C0.752785 11.174 -0.0678864 12.8262 -0.284447 14.6066C-0.501011 16.387 -0.100689 18.1879 0.850323 19.7086C5.91222 27.2237 12.3786 33.6902 19.8937 38.7521ZM18.0421 8.39679C16.8396 8.39679 15.8648 9.37158 15.8648 10.574C15.8648 11.7765 16.8396 12.7512 18.0421 12.7512C20.5443 12.7512 22.944 13.7452 24.7134 15.5146C26.4827 17.2839 27.4767 19.6837 27.4767 22.1859C27.4767 23.3883 28.4515 24.3631 29.6539 24.3631C30.8564 24.3631 31.8312 23.3883 31.8312 22.1859C31.8312 18.5288 30.3784 15.0215 27.7924 12.4355C25.2065 9.84955 21.6992 8.39679 18.0421 8.39679Z" fill="#FABD01"/>
</svg>
